<?xml version="1.0" encoding="UTF-8" standalone="no"?>
<!-- Generator: Adobe Illustrator 15.1.0, SVG Export Plug-In . SVG Version: 6.00 Build 0)  -->

<svg
   xmlns:dc="http://purl.org/dc/elements/1.1/"
   xmlns:cc="http://creativecommons.org/ns#"
   xmlns:rdf="http://www.w3.org/1999/02/22-rdf-syntax-ns#"
   xmlns:svg="http://www.w3.org/2000/svg"
   xmlns="http://www.w3.org/2000/svg"
   xmlns:sodipodi="http://sodipodi.sourceforge.net/DTD/sodipodi-0.dtd"
   xmlns:inkscape="http://www.inkscape.org/namespaces/inkscape"
   version="1.1"
   id="news"
   x="0px"
   y="0px"
   width="128px"
   height="128px"
   viewBox="0 0 128 128"
   style="enable-background:new 0 0 128 128;"
   xml:space="preserve"
   inkscape:version="0.91 r13725"
   sodipodi:docname="banner.svg"><metadata
     id="metadata57"><rdf:RDF><cc:Work
         rdf:about=""><dc:format>image/svg+xml</dc:format><dc:type
           rdf:resource="http://purl.org/dc/dcmitype/StillImage" /></cc:Work></rdf:RDF></metadata><defs
     id="defs55"><pattern
       y="0"
       x="0"
       height="6"
       width="6"
       patternUnits="userSpaceOnUse"
       id="EMFhbasepattern" /></defs><sodipodi:namedview
     pagecolor="#ffffff"
     bordercolor="#666666"
     borderopacity="1"
     objecttolerance="10"
     gridtolerance="10"
     guidetolerance="10"
     inkscape:pageopacity="0"
     inkscape:pageshadow="2"
     inkscape:window-width="1140"
     inkscape:window-height="910"
     id="namedview53"
     showgrid="false"
     inkscape:zoom="3.6875"
     inkscape:cx="69.106503"
     inkscape:cy="58.246783"
     inkscape:window-x="0"
     inkscape:window-y="0"
     inkscape:window-maximized="0"
     inkscape:current-layer="g4268" /><g
     id="g3"><circle
       style="fill:#ff7f2a"
       cx="64"
       cy="64"
       r="64"
       id="circle5" /><g
       id="g4268"
       transform="matrix(0.92419965,0,0,0.92419965,6.5273005,6.5739487)"><rect
         ry="1.1950452"
         rx="1.1077183"
         y="37.145538"
         x="36.971611"
         height="50.033928"
         width="30.532223"
         id="rect4211"
         style="fill:#e6e6e6;fill-opacity:1;stroke:none;stroke-width:1;stroke-miterlimit:4;stroke-dasharray:none;stroke-opacity:1" /><rect
         ry="1.4175519"
         rx="1.0899855"
         y="37.145538"
         x="17.06621"
         height="50.033928"
         width="18.392904"
         id="rect4211-2"
         style="fill:#cccccc;fill-opacity:1;stroke:none;stroke-width:1;stroke-miterlimit:4;stroke-dasharray:none;stroke-opacity:1" /><rect
         ry="1.4175519"
         rx="1.0899855"
         y="37.092495"
         x="69.016335"
         height="50.033928"
         width="18.392904"
         id="rect4211-2-9"
         style="fill:#cccccc;fill-opacity:1;stroke:none;stroke-width:1;stroke-miterlimit:4;stroke-dasharray:none;stroke-opacity:1" /><rect
         ry="1.4175519"
         rx="1.0899855"
         y="37.092495"
         x="88.913795"
         height="50.033928"
         width="18.392904"
         id="rect4211-2-3"
         style="fill:#cccccc;fill-opacity:1;stroke:none;stroke-width:1;stroke-miterlimit:4;stroke-dasharray:none;stroke-opacity:1" /><rect
         ry="0.32266754"
         rx="0.29196703"
         y="62.977661"
         x="40.977173"
         height="4.985702"
         width="22.435659"
         id="rect4249"
         style="fill:#b3b3b3;fill-opacity:1;stroke:none;stroke-width:1;stroke-miterlimit:4;stroke-dasharray:none;stroke-opacity:1" /><rect
         ry="0.3904666"
         rx="0.39366084"
         y="71.065971"
         x="41.025112"
         height="1.9175777"
         width="22.339781"
         id="rect4251"
         style="fill:#b3b3b3;fill-opacity:1;stroke:none;stroke-width:1;stroke-miterlimit:4;stroke-dasharray:none;stroke-opacity:1" /><rect
         ry="0.3904666"
         rx="0.39366084"
         y="74.363243"
         x="41.025112"
         height="1.9175777"
         width="22.339781"
         id="rect4251-0"
         style="fill:#b3b3b3;fill-opacity:1;stroke:none;stroke-width:1;stroke-miterlimit:4;stroke-dasharray:none;stroke-opacity:1" /></g></g><g
     id="g4204"
     transform="translate(0,-10.73141)"><path
       style="fill:#333333;fill-opacity:1;fill-rule:nonzero;stroke:none"
       d="m 38.000018,119.694 c 0,10.49307 -8.544349,19.03741 -19.037434,19.03741 C 8.4694391,138.73141 0,130.18707 0,119.694 c 0,-10.49314 8.4694391,-18.96259 18.962584,-18.96259 10.493085,0 19.037434,8.46945 19.037434,18.96259 z"
       id="path4190"
       inkscape:connector-curvature="0" /><path
       style="fill:#ff6600;fill-opacity:1;fill-rule:nonzero;stroke:none"
       d="m 6.0710168,115.57166 0,1.34913 c 0.5246495,-0.97434 1.424055,-1.42405 2.6232762,-1.42405 0.674552,0 1.2741624,0.14978 1.72384,0.44971 0.52466,0.29992 0.899416,0.74948 1.199221,1.27416 0.299807,-0.52468 0.674562,-0.97438 1.199222,-1.27416 0.524659,-0.29993 1.124269,-0.44971 1.798831,-0.44971 0.899416,0 1.723881,0.29992 2.323491,0.89941 0.674562,0.5996 0.974367,1.49902 0.974367,2.62329 l 0,4.94668 -1.72388,0 0,-4.64687 c 0,-0.74952 -0.224854,-1.34912 -0.599611,-1.7239 -0.374756,-0.44971 -0.899416,-0.5996 -1.499026,-0.5996 -0.674562,0 -1.199221,0.14979 -1.573978,0.5996 -0.374756,0.37478 -0.524659,0.97438 -0.524659,1.7239 l 0,4.64687 -1.72388,0 0,-4.64687 c 0,-0.74952 -0.224854,-1.34912 -0.599581,-1.7239 -0.3747564,-0.44971 -0.8994055,-0.5996 -1.4990163,-0.5996 -0.6745619,0 -1.199211,0.14979 -1.5739674,0.5996 -0.3747569,0.37478 -0.5246495,0.97438 -0.5246495,1.7239 l 0,4.64687 -1.7988217,0 0,-8.39446 1.7988217,0 z"
       id="path4192"
       inkscape:connector-curvature="0" /><path
       style="fill:#ff6600;fill-opacity:1;fill-rule:nonzero;stroke:none"
       d="m 21.810634,115.57166 0,1.34913 c 0.599611,-0.97434 1.424075,-1.42405 2.698248,-1.42405 0.59961,0 1.19922,0.14978 1.72388,0.44971 0.524659,0.29992 0.899416,0.74948 1.12427,1.27416 0.299806,-0.52468 0.749513,-0.97438 1.274172,-1.27416 0.524659,-0.29993 1.049319,-0.44971 1.72388,-0.44971 0.974367,0 1.798832,0.29992 2.398443,0.89941 0.59961,0.5996 0.899415,1.49902 0.899415,2.62329 l 0,4.94668 -1.72388,0 0,-4.64687 c 0,-0.74952 -0.149901,-1.34912 -0.524659,-1.7239 -0.374757,-0.44971 -0.899416,-0.5996 -1.573978,-0.5996 -0.674562,0 -1.12427,0.14979 -1.499026,0.5996 -0.374757,0.37478 -0.599611,0.97438 -0.599611,1.7239 l 0,4.64687 -1.72388,0 0,-4.64687 c 0,-0.74952 -0.149902,-1.34912 -0.52466,-1.7239 -0.374756,-0.44971 -0.899415,-0.5996 -1.573977,-0.5996 -0.599611,0 -1.12427,0.14979 -1.499026,0.5996 -0.374757,0.37478 -0.599611,0.97438 -0.599611,1.7239 l 0,4.64687 -1.723781,0 0,-8.39446 1.723781,0 z"
       id="path4194"
       inkscape:connector-curvature="0" /></g></svg>