<?xml version="1.0" encoding="UTF-8" standalone="no"?>
<!-- Generator: Adobe Illustrator 15.1.0, SVG Export Plug-In . SVG Version: 6.00 Build 0)  -->

<svg
   xmlns:dc="http://purl.org/dc/elements/1.1/"
   xmlns:cc="http://creativecommons.org/ns#"
   xmlns:rdf="http://www.w3.org/1999/02/22-rdf-syntax-ns#"
   xmlns:svg="http://www.w3.org/2000/svg"
   xmlns="http://www.w3.org/2000/svg"
   xmlns:sodipodi="http://sodipodi.sourceforge.net/DTD/sodipodi-0.dtd"
   xmlns:inkscape="http://www.inkscape.org/namespaces/inkscape"
   version="1.1"
   id="Layer_1"
   x="0px"
   y="0px"
   width="128px"
   height="128px"
   viewBox="0 0 128 128"
   style="enable-background:new 0 0 128 128;"
   xml:space="preserve"
   inkscape:version="0.91 r13725"
   sodipodi:docname="banner.svg"><metadata
     id="metadata47"><rdf:RDF><cc:Work
         rdf:about=""><dc:format>image/svg+xml</dc:format><dc:type
           rdf:resource="http://purl.org/dc/dcmitype/StillImage" /></cc:Work></rdf:RDF></metadata><defs
     id="defs45" /><sodipodi:namedview
     pagecolor="#ffffff"
     bordercolor="#666666"
     borderopacity="1"
     objecttolerance="10"
     gridtolerance="10"
     guidetolerance="10"
     inkscape:pageopacity="0"
     inkscape:pageshadow="2"
     inkscape:window-width="1014"
     inkscape:window-height="854"
     id="namedview43"
     showgrid="false"
     inkscape:zoom="3.6875"
     inkscape:cx="46.206823"
     inkscape:cy="91.71072"
     inkscape:window-x="0"
     inkscape:window-y="40"
     inkscape:window-maximized="0"
     inkscape:current-layer="g4298" /><g
     id="g3"><circle
       style="fill:#88C5CC;"
       cx="64"
       cy="64"
       r="64"
       id="circle5" /><g
       id="g4229"
       transform="matrix(0.90476681,0,0,0.970383,96.14355,173.78133)"><g
         id="g4298"
         transform="translate(-1.348788,2.7422335)"><rect
           ry="1.2938973"
           rx="1.5227429"
           y="-147.59561"
           x="-75.793678"
           height="23.412983"
           width="37.498356"
           id="rect4165-3"
           style="fill:#999999;fill-opacity:1;stroke:none;stroke-width:1;stroke-miterlimit:4;stroke-dasharray:none;stroke-opacity:1" /><path
           id="rect4165"
           d="m -64.064808,-142.55488 c -0.588623,-0.0459 -1.107015,0.4852 -1.591314,1.29514 l -8.459425,17.07691 32.984756,0 -6.500745,-11.11063 c -0.732696,-1.05153 -1.607709,-1.17683 -2.476994,-0.0433 l -5.059469,7.17754 -7.37824,-13.10056 c -0.560099,-0.87479 -1.060751,-1.25943 -1.518569,-1.29514 z m 10.366274,0.96584 a 1.7675992,1.5935537 0 0 0 -1.767722,1.59354 1.7675992,1.5935537 0 0 0 1.767722,1.59353 1.7675992,1.5935537 0 0 0 1.767723,-1.59353 1.7675992,1.5935537 0 0 0 -1.767723,-1.59354 z"
           style="fill:#e6e6e6;fill-opacity:1;stroke:none;stroke-width:1;stroke-miterlimit:4;stroke-dasharray:none;stroke-opacity:1"
           inkscape:connector-curvature="0" /><rect
           ry="1.2067785"
           rx="2.317946"
           y="-122.39788"
           x="-75.615608"
           height="4.3444538"
           width="37.284954"
           id="rect4200"
           style="fill:#e6e6e6;fill-opacity:1;stroke:none;stroke-width:1;stroke-miterlimit:4;stroke-dasharray:none;stroke-opacity:1" /><rect
           ry="1.2938973"
           rx="1.5227429"
           y="-147.59561"
           x="-30.060879"
           height="23.412983"
           width="37.498356"
           id="rect4165-3-9"
           style="fill:#999999;fill-opacity:1;stroke:none;stroke-width:1;stroke-miterlimit:4;stroke-dasharray:none;stroke-opacity:1" /><path
           id="rect4165-1"
           d="m -18.332012,-142.55488 c -0.588623,-0.0459 -1.107015,0.4852 -1.591314,1.29514 l -8.459425,17.0769 32.9847563,0 -6.5007451,-11.11063 c -0.7326963,-1.05152 -1.6077097,-1.17681 -2.4769937,-0.0433 l -5.0594692,7.17754 -7.3782413,-13.10057 c -0.560098,-0.87479 -1.06075,-1.25943 -1.518568,-1.29513 z m 10.3662744,0.96583 a 1.7675991,1.5935538 0 0 0 -1.7677231,1.59354 1.7675991,1.5935538 0 0 0 1.7677231,1.59354 1.7675991,1.5935538 0 0 0 1.7677224,-1.59354 1.7675991,1.5935538 0 0 0 -1.7677224,-1.59354 z"
           style="fill:#e6e6e6;fill-opacity:1;stroke:none;stroke-width:1;stroke-miterlimit:4;stroke-dasharray:none;stroke-opacity:1"
           inkscape:connector-curvature="0" /><rect
           ry="1.2067785"
           rx="2.317946"
           y="-122.39788"
           x="-29.882809"
           height="4.3444538"
           width="37.284954"
           id="rect4200-9"
           style="fill:#e6e6e6;fill-opacity:1;stroke:none;stroke-width:1;stroke-miterlimit:4;stroke-dasharray:none;stroke-opacity:1" /><rect
           ry="1.2938973"
           rx="1.5227429"
           y="-113.69496"
           x="-75.793678"
           height="23.412983"
           width="37.498356"
           id="rect4165-3-0"
           style="fill:#999999;fill-opacity:1;stroke:none;stroke-width:1;stroke-miterlimit:4;stroke-dasharray:none;stroke-opacity:1" /><path
           id="rect4165-6"
           d="m -64.064808,-108.65422 c -0.588623,-0.0459 -1.107015,0.4852 -1.591314,1.29514 l -8.459425,17.076905 32.984756,0 -6.500745,-11.110625 c -0.732696,-1.05153 -1.607709,-1.17683 -2.476994,-0.0433 l -5.059469,7.177542 -7.37824,-13.100562 c -0.560099,-0.87479 -1.060751,-1.25943 -1.518569,-1.29514 z m 10.366274,0.96584 a 1.7675992,1.5935537 0 0 0 -1.767722,1.59353 1.7675992,1.5935537 0 0 0 1.767722,1.59354 1.7675992,1.5935537 0 0 0 1.767723,-1.59354 1.7675992,1.5935537 0 0 0 -1.767723,-1.59353 z"
           style="fill:#e6e6e6;fill-opacity:1;stroke:none;stroke-width:1;stroke-miterlimit:4;stroke-dasharray:none;stroke-opacity:1"
           inkscape:connector-curvature="0" /><rect
           ry="1.2067785"
           rx="2.317946"
           y="-88.497223"
           x="-75.615608"
           height="4.3444538"
           width="37.284954"
           id="rect4200-93"
           style="fill:#e6e6e6;fill-opacity:1;stroke:none;stroke-width:1;stroke-miterlimit:4;stroke-dasharray:none;stroke-opacity:1" /><rect
           ry="1.2938973"
           rx="1.5227429"
           y="-113.69496"
           x="-30.060881"
           height="23.412983"
           width="37.498356"
           id="rect4165-3-7"
           style="fill:#999999;fill-opacity:1;stroke:none;stroke-width:1;stroke-miterlimit:4;stroke-dasharray:none;stroke-opacity:1" /><path
           id="rect4165-5"
           d="m -18.332012,-108.65422 c -0.588623,-0.0459 -1.107015,0.4852 -1.591314,1.29514 l -8.459425,17.076905 32.9847561,0 -6.5007449,-11.110625 c -0.7326961,-1.05153 -1.6077097,-1.17683 -2.476994,-0.0433 l -5.0594689,7.177542 -7.3782403,-13.100562 c -0.560099,-0.87479 -1.060751,-1.25943 -1.518569,-1.29514 z m 10.3662741,0.96584 a 1.7675992,1.5935537 0 0 0 -1.7677225,1.59353 1.7675992,1.5935537 0 0 0 1.7677225,1.59354 1.7675992,1.5935537 0 0 0 1.7677225,-1.59354 1.7675992,1.5935537 0 0 0 -1.7677225,-1.59353 z"
           style="fill:#e6e6e6;fill-opacity:1;stroke:none;stroke-width:1;stroke-miterlimit:4;stroke-dasharray:none;stroke-opacity:1"
           inkscape:connector-curvature="0" /><rect
           ry="1.2067785"
           rx="2.317946"
           y="-88.497223"
           x="-29.882809"
           height="4.3444538"
           width="37.284954"
           id="rect4200-7"
           style="fill:#e6e6e6;fill-opacity:1;stroke:none;stroke-width:1;stroke-miterlimit:4;stroke-dasharray:none;stroke-opacity:1" /></g></g></g><g
     id="g4217"><path
       style="fill:#333333;fill-opacity:1;fill-rule:nonzero;stroke:none"
       d="M 38,108.9626 C 38,119.45566 29.455655,128 18.962575,128 8.4694351,128 0,119.45566 0,108.9626 0,98.46947 8.4694351,90.00002 18.962575,90.00002 29.455655,90.00002 38,98.46947 38,108.9626 Z"
       id="path4203"
       inkscape:connector-curvature="0" /><path
       style="fill:#ff6600;fill-opacity:1;fill-rule:nonzero;stroke:none"
       d="m 6.071014,104.84027 0,1.34912 c 0.5246492,-0.97434 1.4240543,-1.42405 2.623275,-1.42405 0.6745516,0 1.2741618,0.14978 1.723839,0.44971 0.524659,0.29992 0.899416,0.74948 1.199221,1.27416 0.299806,-0.52468 0.674562,-0.97438 1.199221,-1.27416 0.524658,-0.29993 1.124269,-0.44971 1.798831,-0.44971 0.899415,0 1.723879,0.29992 2.323489,0.89941 0.674562,0.5996 0.974367,1.49902 0.974367,2.62329 l 0,4.94668 -1.72388,0 0,-4.64687 c 0,-0.74952 -0.224853,-1.34912 -0.59961,-1.7239 -0.374756,-0.44971 -0.899415,-0.5996 -1.499026,-0.5996 -0.674561,0 -1.19922,0.14979 -1.573977,0.5996 -0.374756,0.37478 -0.524659,0.97438 -0.524659,1.7239 l 0,4.64687 -1.723879,0 0,-4.64687 c 0,-0.74952 -0.224854,-1.34912 -0.5995805,-1.7239 -0.3747563,-0.44971 -0.8994051,-0.5996 -1.4990156,-0.5996 -0.6745616,0 -1.1992104,0.14979 -1.5739667,0.5996 -0.3747567,0.37478 -0.5246492,0.97438 -0.5246492,1.7239 l 0,4.64687 -1.7988209,0 0,-8.39445 1.7988209,0 z"
       id="path4205"
       inkscape:connector-curvature="0" /><path
       style="fill:#ff6600;fill-opacity:1;fill-rule:nonzero;stroke:none"
       d="m 21.810624,104.84027 0,1.34912 c 0.59961,-0.97434 1.424074,-1.42405 2.698246,-1.42405 0.59961,0 1.19922,0.14978 1.72388,0.44971 0.524659,0.29992 0.899415,0.74948 1.124269,1.27416 0.299806,-0.52468 0.749513,-0.97438 1.274172,-1.27416 0.524659,-0.29993 1.049318,-0.44971 1.723879,-0.44971 0.974367,0 1.798831,0.29992 2.398441,0.89941 0.59961,0.5996 0.899416,1.49902 0.899416,2.62329 l 0,4.94668 -1.72388,0 0,-4.64687 c 0,-0.74952 -0.149901,-1.34912 -0.524659,-1.7239 -0.374756,-0.44971 -0.899415,-0.5996 -1.573977,-0.5996 -0.674561,0 -1.124269,0.14979 -1.499025,0.5996 -0.374757,0.37478 -0.599611,0.97438 -0.599611,1.7239 l 0,4.64687 -1.723879,0 0,-4.64687 c 0,-0.74952 -0.149902,-1.34912 -0.524659,-1.7239 -0.374757,-0.44971 -0.899416,-0.5996 -1.573977,-0.5996 -0.599611,0 -1.12427,0.14979 -1.499026,0.5996 -0.374756,0.37478 -0.59961,0.97438 -0.59961,1.7239 l 0,4.64687 -1.72378,0 0,-8.39445 1.72378,0 z"
       id="path4207"
       inkscape:connector-curvature="0" /></g></svg>