<?xml version="1.0" encoding="UTF-8" standalone="no"?>
<!-- Generator: Adobe Illustrator 15.1.0, SVG Export Plug-In . SVG Version: 6.00 Build 0)  -->

<svg
   xmlns:dc="http://purl.org/dc/elements/1.1/"
   xmlns:cc="http://creativecommons.org/ns#"
   xmlns:rdf="http://www.w3.org/1999/02/22-rdf-syntax-ns#"
   xmlns:svg="http://www.w3.org/2000/svg"
   xmlns="http://www.w3.org/2000/svg"
   xmlns:sodipodi="http://sodipodi.sourceforge.net/DTD/sodipodi-0.dtd"
   xmlns:inkscape="http://www.inkscape.org/namespaces/inkscape"
   version="1.1"
   id="Layer_1"
   x="0px"
   y="0px"
   width="128px"
   height="128px"
   viewBox="0 0 128 128"
   style="enable-background:new 0 0 128 128;"
   xml:space="preserve"
   inkscape:version="0.91 r13725"
   sodipodi:docname="banner.svg"><metadata
     id="metadata21"><rdf:RDF><cc:Work
         rdf:about=""><dc:format>image/svg+xml</dc:format><dc:type
           rdf:resource="http://purl.org/dc/dcmitype/StillImage" /></cc:Work></rdf:RDF></metadata><defs
     id="defs19" /><sodipodi:namedview
     pagecolor="#ffffff"
     bordercolor="#666666"
     borderopacity="1"
     objecttolerance="10"
     gridtolerance="10"
     guidetolerance="10"
     inkscape:pageopacity="0"
     inkscape:pageshadow="2"
     inkscape:window-width="1161"
     inkscape:window-height="925"
     id="namedview17"
     showgrid="false"
     inkscape:zoom="2.6074563"
     inkscape:cx="49.151147"
     inkscape:cy="88.816246"
     inkscape:window-x="0"
     inkscape:window-y="40"
     inkscape:window-maximized="0"
     inkscape:current-layer="g4218" /><g
     id="g3"><path
       style="fill:#87de87"
       d="M64,0C28.654,0,0,28.654,0,64c0,35.346,28.654,64,64,64s64-28.654,64-64C128,28.654,99.346,0,64,0z"
       id="path5" /><g
       id="g4196"
       transform="matrix(0.80953353,0,0,0.82229778,75.502202,55.198129)"><g
         id="g4218"
         transform="translate(4.1823196,0.36523257)"><g
           id="g4229"
           transform="matrix(1.1176397,0,0,1.1800871,15.834722,138.29917)"><g
             id="g4222"
             transform="translate(-4.1823196,-0.36523257)"><rect
               ry="2.8624928"
               rx="3.2706854"
               y="-133.96609"
               x="-66.711861"
               height="51.796612"
               width="80.542374"
               id="rect4165-3"
               style="fill:#cccccc;fill-opacity:1;stroke:none;stroke-width:1;stroke-miterlimit:4;stroke-dasharray:none;stroke-opacity:1" /><path
               id="rect4165"
               d="m -41.519531,-122.81445 c -1.264298,-0.10157 -2.377748,1.0734 -3.417969,2.86523 l -18.169922,37.779298 70.8476564,0 L -6.2226562,-106.75 c -1.5737513,-2.32629 -3.453185,-2.60349 -5.3203128,-0.0957 l -10.867187,15.878903 -15.847656,-28.982423 c -1.20303,-1.9353 -2.278376,-2.78624 -3.261719,-2.86523 z m 22.265625,2.13672 a 3.7966101,3.5254238 0 0 0 -3.796875,3.52539 3.7966101,3.5254238 0 0 0 3.796875,3.52539 3.7966101,3.5254238 0 0 0 3.796875,-3.52539 3.7966101,3.5254238 0 0 0 -3.796875,-3.52539 z"
               style="fill:#e6e6e6;fill-opacity:1;stroke:none;stroke-width:1;stroke-miterlimit:4;stroke-dasharray:none;stroke-opacity:1"
               inkscape:connector-curvature="0" /></g><rect
             style="fill:#666666;fill-opacity:1;stroke:none;stroke-width:1;stroke-miterlimit:4;stroke-dasharray:none;stroke-opacity:1"
             id="rect4200"
             width="64.988251"
             height="10.200086"
             x="-63.117119"
             y="-114.61661"
             rx="4.0402155"
             ry="2.8333237" /><rect
             style="fill:#666666;fill-opacity:1;stroke:none;stroke-width:1;stroke-miterlimit:4;stroke-dasharray:none;stroke-opacity:1"
             id="rect4200-7"
             width="57.61845"
             height="2.9446819"
             x="-59.432217"
             y="-100.22946"
             rx="3.5820467"
             ry="0.81795764" /></g></g></g></g><g
     id="g4217"><path
       style="fill:#333333;fill-opacity:1;fill-rule:nonzero;stroke:none"
       d="M 38,108.9626 C 38,119.45566 29.455655,128 18.962575,128 8.4694351,128 0,119.45566 0,108.9626 0,98.46947 8.4694351,90.00002 18.962575,90.00002 29.455655,90.00002 38,98.46947 38,108.9626 Z"
       id="path4203"
       inkscape:connector-curvature="0" /><path
       style="fill:#ff6600;fill-opacity:1;fill-rule:nonzero;stroke:none"
       d="m 6.071014,104.84027 0,1.34912 c 0.5246492,-0.97434 1.4240543,-1.42405 2.623275,-1.42405 0.6745516,0 1.2741618,0.14978 1.723839,0.44971 0.524659,0.29992 0.899416,0.74948 1.199221,1.27416 0.299806,-0.52468 0.674562,-0.97438 1.199221,-1.27416 0.524658,-0.29993 1.124269,-0.44971 1.798831,-0.44971 0.899415,0 1.723879,0.29992 2.323489,0.89941 0.674562,0.5996 0.974367,1.49902 0.974367,2.62329 l 0,4.94668 -1.72388,0 0,-4.64687 c 0,-0.74952 -0.224853,-1.34912 -0.59961,-1.7239 -0.374756,-0.44971 -0.899415,-0.5996 -1.499026,-0.5996 -0.674561,0 -1.19922,0.14979 -1.573977,0.5996 -0.374756,0.37478 -0.524659,0.97438 -0.524659,1.7239 l 0,4.64687 -1.723879,0 0,-4.64687 c 0,-0.74952 -0.224854,-1.34912 -0.5995805,-1.7239 -0.3747563,-0.44971 -0.8994051,-0.5996 -1.4990156,-0.5996 -0.6745616,0 -1.1992104,0.14979 -1.5739667,0.5996 -0.3747567,0.37478 -0.5246492,0.97438 -0.5246492,1.7239 l 0,4.64687 -1.7988209,0 0,-8.39445 1.7988209,0 z"
       id="path4205"
       inkscape:connector-curvature="0" /><path
       style="fill:#ff6600;fill-opacity:1;fill-rule:nonzero;stroke:none"
       d="m 21.810624,104.84027 0,1.34912 c 0.59961,-0.97434 1.424074,-1.42405 2.698246,-1.42405 0.59961,0 1.19922,0.14978 1.72388,0.44971 0.524659,0.29992 0.899415,0.74948 1.124269,1.27416 0.299806,-0.52468 0.749513,-0.97438 1.274172,-1.27416 0.524659,-0.29993 1.049318,-0.44971 1.723879,-0.44971 0.974367,0 1.798831,0.29992 2.398441,0.89941 0.59961,0.5996 0.899416,1.49902 0.899416,2.62329 l 0,4.94668 -1.72388,0 0,-4.64687 c 0,-0.74952 -0.149901,-1.34912 -0.524659,-1.7239 -0.374756,-0.44971 -0.899415,-0.5996 -1.573977,-0.5996 -0.674561,0 -1.124269,0.14979 -1.499025,0.5996 -0.374757,0.37478 -0.599611,0.97438 -0.599611,1.7239 l 0,4.64687 -1.723879,0 0,-4.64687 c 0,-0.74952 -0.149902,-1.34912 -0.524659,-1.7239 -0.374757,-0.44971 -0.899416,-0.5996 -1.573977,-0.5996 -0.599611,0 -1.12427,0.14979 -1.499026,0.5996 -0.374756,0.37478 -0.59961,0.97438 -0.59961,1.7239 l 0,4.64687 -1.72378,0 0,-8.39445 1.72378,0 z"
       id="path4207"
       inkscape:connector-curvature="0" /></g></svg>