<?xml version="1.0" encoding="UTF-8" standalone="no"?>
<!-- Generator: Adobe Illustrator 15.0.0, SVG Export Plug-In . SVG Version: 6.00 Build 0)  -->

<svg
   xmlns:dc="http://purl.org/dc/elements/1.1/"
   xmlns:cc="http://creativecommons.org/ns#"
   xmlns:rdf="http://www.w3.org/1999/02/22-rdf-syntax-ns#"
   xmlns:svg="http://www.w3.org/2000/svg"
   xmlns="http://www.w3.org/2000/svg"
   xmlns:sodipodi="http://sodipodi.sourceforge.net/DTD/sodipodi-0.dtd"
   xmlns:inkscape="http://www.inkscape.org/namespaces/inkscape"
   version="1.1"
   id="Layer_1"
   x="0px"
   y="0px"
   width="128px"
   height="128px"
   viewBox="0 0 128 128"
   style="enable-background:new 0 0 128 128;"
   xml:space="preserve"
   inkscape:version="0.91 r13725"
   sodipodi:docname="banner.svg"><metadata
     id="metadata51"><rdf:RDF><cc:Work
         rdf:about=""><dc:format>image/svg+xml</dc:format><dc:type
           rdf:resource="http://purl.org/dc/dcmitype/StillImage" /><dc:title></dc:title></cc:Work></rdf:RDF></metadata><defs
     id="defs49"><pattern
       y="0"
       x="0"
       height="6"
       width="6"
       patternUnits="userSpaceOnUse"
       id="EMFhbasepattern" /></defs><sodipodi:namedview
     pagecolor="#ffffff"
     bordercolor="#666666"
     borderopacity="1"
     objecttolerance="10"
     gridtolerance="10"
     guidetolerance="10"
     inkscape:pageopacity="0"
     inkscape:pageshadow="2"
     inkscape:window-width="1280"
     inkscape:window-height="961"
     id="namedview47"
     showgrid="false"
     inkscape:zoom="2.6074563"
     inkscape:cx="33.874277"
     inkscape:cy="90.523955"
     inkscape:window-x="-8"
     inkscape:window-y="32"
     inkscape:window-maximized="1"
     inkscape:current-layer="g3" /><g
     id="g3"><circle
       style="fill:#ffb380"
       cx="64"
       cy="64"
       r="64"
       id="circle5" /><g
       id="g4148"><path
         inkscape:connector-curvature="0"
         id="path17"
         d="m 104.08242,85.858585 c 0,1.049778 -0.85891,1.908686 -1.90868,1.908686 l -76.347475,0 c -1.049778,0 -1.908687,-0.858908 -1.908687,-1.908686 l 0,-47.71717 c 0,-1.049778 0.858909,-1.908686 1.908687,-1.908686 l 76.347475,0 c 1.04977,0 1.90868,0.858908 1.90868,1.908686 l 0,47.71717 z"
         style="fill:#f5f5f5" /><rect
         id="rect19"
         height="12.01583"
         width="74.871918"
         style="fill:#b3b3b3"
         y="39.061001"
         x="26.564037" /><rect
         id="rect21"
         height="24.102459"
         width="16.223837"
         style="fill:#dedede;fill-opacity:1"
         y="60.564945"
         x="26.780609" /><rect
         x="44.913132"
         y="60.564945"
         style="fill:#dedede;fill-opacity:1"
         width="56.306259"
         height="2.6780512"
         id="rect27" /><rect
         x="44.913132"
         y="65.921051"
         style="fill:#dedede;fill-opacity:1"
         width="56.306259"
         height="2.6780512"
         id="rect29" /><rect
         x="44.913132"
         y="71.277153"
         style="fill:#dedede;fill-opacity:1"
         width="56.306259"
         height="2.6780512"
         id="rect31" /><rect
         x="44.913132"
         y="76.633263"
         style="fill:#dedede;fill-opacity:1"
         width="56.306259"
         height="2.6780512"
         id="rect33" /><rect
         x="44.913132"
         y="81.989365"
         style="fill:#dedede;fill-opacity:1"
         width="56.306259"
         height="2.6780512"
         id="rect35" /><rect
         x="26.456202"
         y="53.404224"
         style="fill:#b3b3b3"
         width="74.771011"
         height="3.3774738"
         id="rect27-2" /></g></g><g
     id="g4217"><path
       style="fill:#333333;fill-opacity:1;fill-rule:nonzero;stroke:none"
       d="M 38,108.9626 C 38,119.45566 29.455655,128 18.962575,128 8.4694351,128 0,119.45566 0,108.9626 0,98.46947 8.4694351,90.00002 18.962575,90.00002 29.455655,90.00002 38,98.46947 38,108.9626 Z"
       id="path4203"
       inkscape:connector-curvature="0" /><path
       style="fill:#ff6600;fill-opacity:1;fill-rule:nonzero;stroke:none"
       d="m 6.071014,104.84027 0,1.34912 c 0.5246492,-0.97434 1.4240543,-1.42405 2.623275,-1.42405 0.6745516,0 1.2741618,0.14978 1.723839,0.44971 0.524659,0.29992 0.899416,0.74948 1.199221,1.27416 0.299806,-0.52468 0.674562,-0.97438 1.199221,-1.27416 0.524658,-0.29993 1.124269,-0.44971 1.798831,-0.44971 0.899415,0 1.723879,0.29992 2.323489,0.89941 0.674562,0.5996 0.974367,1.49902 0.974367,2.62329 l 0,4.94668 -1.72388,0 0,-4.64687 c 0,-0.74952 -0.224853,-1.34912 -0.59961,-1.7239 -0.374756,-0.44971 -0.899415,-0.5996 -1.499026,-0.5996 -0.674561,0 -1.19922,0.14979 -1.573977,0.5996 -0.374756,0.37478 -0.524659,0.97438 -0.524659,1.7239 l 0,4.64687 -1.723879,0 0,-4.64687 c 0,-0.74952 -0.224854,-1.34912 -0.5995805,-1.7239 -0.3747563,-0.44971 -0.8994051,-0.5996 -1.4990156,-0.5996 -0.6745616,0 -1.1992104,0.14979 -1.5739667,0.5996 -0.3747567,0.37478 -0.5246492,0.97438 -0.5246492,1.7239 l 0,4.64687 -1.7988209,0 0,-8.39445 1.7988209,0 z"
       id="path4205"
       inkscape:connector-curvature="0" /><path
       style="fill:#ff6600;fill-opacity:1;fill-rule:nonzero;stroke:none"
       d="m 21.810624,104.84027 0,1.34912 c 0.59961,-0.97434 1.424074,-1.42405 2.698246,-1.42405 0.59961,0 1.19922,0.14978 1.72388,0.44971 0.524659,0.29992 0.899415,0.74948 1.124269,1.27416 0.299806,-0.52468 0.749513,-0.97438 1.274172,-1.27416 0.524659,-0.29993 1.049318,-0.44971 1.723879,-0.44971 0.974367,0 1.798831,0.29992 2.398441,0.89941 0.59961,0.5996 0.899416,1.49902 0.899416,2.62329 l 0,4.94668 -1.72388,0 0,-4.64687 c 0,-0.74952 -0.149901,-1.34912 -0.524659,-1.7239 -0.374756,-0.44971 -0.899415,-0.5996 -1.573977,-0.5996 -0.674561,0 -1.124269,0.14979 -1.499025,0.5996 -0.374757,0.37478 -0.599611,0.97438 -0.599611,1.7239 l 0,4.64687 -1.723879,0 0,-4.64687 c 0,-0.74952 -0.149902,-1.34912 -0.524659,-1.7239 -0.374757,-0.44971 -0.899416,-0.5996 -1.573977,-0.5996 -0.599611,0 -1.12427,0.14979 -1.499026,0.5996 -0.374756,0.37478 -0.59961,0.97438 -0.59961,1.7239 l 0,4.64687 -1.72378,0 0,-8.39445 1.72378,0 z"
       id="path4207"
       inkscape:connector-curvature="0" /></g></svg>