<?xml version="1.0" encoding="UTF-8" standalone="no"?>
<!-- Generator: Adobe Illustrator 15.1.0, SVG Export Plug-In . SVG Version: 6.00 Build 0)  -->

<svg
   xmlns:dc="http://purl.org/dc/elements/1.1/"
   xmlns:cc="http://creativecommons.org/ns#"
   xmlns:rdf="http://www.w3.org/1999/02/22-rdf-syntax-ns#"
   xmlns:svg="http://www.w3.org/2000/svg"
   xmlns="http://www.w3.org/2000/svg"
   xmlns:sodipodi="http://sodipodi.sourceforge.net/DTD/sodipodi-0.dtd"
   xmlns:inkscape="http://www.inkscape.org/namespaces/inkscape"
   version="1.1"
   id="Layer_1"
   x="0px"
   y="0px"
   width="128px"
   height="128px"
   viewBox="0 0 128 128"
   style="enable-background:new 0 0 128 128;"
   xml:space="preserve"
   inkscape:version="0.91 r13725"
   sodipodi:docname="banner.svg"><metadata
     id="metadata31"><rdf:RDF><cc:Work
         rdf:about=""><dc:format>image/svg+xml</dc:format><dc:type
           rdf:resource="http://purl.org/dc/dcmitype/StillImage" /><dc:title></dc:title></cc:Work></rdf:RDF></metadata><defs
     id="defs29"><pattern
       y="0"
       x="0"
       height="6"
       width="6"
       patternUnits="userSpaceOnUse"
       id="EMFhbasepattern" /></defs><sodipodi:namedview
     pagecolor="#ffffff"
     bordercolor="#666666"
     borderopacity="1"
     objecttolerance="10"
     gridtolerance="10"
     guidetolerance="10"
     inkscape:pageopacity="0"
     inkscape:pageshadow="2"
     inkscape:window-width="1015"
     inkscape:window-height="896"
     id="namedview27"
     showgrid="false"
     inkscape:zoom="2.6074563"
     inkscape:cx="61.630046"
     inkscape:cy="35.286805"
     inkscape:window-x="94"
     inkscape:window-y="104"
     inkscape:window-maximized="0"
     inkscape:current-layer="g3" /><g
     id="g3"><circle
       style="fill:#bcd35f"
       cx="64"
       cy="64"
       r="64"
       id="circle5" /><g
       id="g4821"><path
         inkscape:connector-curvature="0"
         id="path4815"
         d="m 53.303706,40.520347 c -4.903057,0.212556 -9.947693,-0.319981 -14.768344,0.561041 -1.786634,1.692332 -0.785914,4.638938 -1.140042,6.82982 0.03202,10.949587 -0.251919,21.92942 0.299603,32.860293 1.449742,2.438703 4.857775,1.112157 7.1594,1.528356 13.81128,0.04487 27.645758,0.272127 41.442955,-0.29841 2.9624,-0.456518 1.376855,-3.948112 1.766269,-5.952729 -0.103273,-8.038764 0.204747,-16.162376 -0.151773,-24.148896 -1.398416,-1.371186 -4.025797,-0.335942 -5.929783,-0.653491 -2.28614,0.212386 -5.606007,-0.219825 -5.93027,-3.140316 -0.598299,-2.402326 0.174354,-5.00053 -0.573775,-7.319005 -5.366557,-0.632505 -10.957377,-0.09517 -16.41102,-0.273404 -1.921076,-0.0016 -3.842147,0.0041 -5.76322,0.0067 z m -5.223901,6.209656 c 2.790258,0.08514 5.612044,-0.154003 8.279292,0.367785 0.25632,3.343617 0.304466,6.841075 -0.02397,10.130953 -4.524886,0.129622 -9.128038,0.382089 -13.618547,-0.06217 -0.263898,-3.260567 -0.669853,-6.721337 0.0764,-9.900243 1.508359,-0.859005 3.627759,-0.378574 5.286822,-0.536323 z"
         style="fill:#f2f2f2;fill-opacity:1;stroke:none;stroke-width:1;stroke-miterlimit:4;stroke-dasharray:none;stroke-opacity:1" /><path
         inkscape:connector-curvature="0"
         id="path4817"
         d="m 44.533784,48.497021 c -0.407917,2.271414 -0.511707,4.915258 0.0397,7.166197 3.046892,0.522154 6.395103,0.303521 9.47643,0.12163 1.415307,-1.53908 0.280035,-4.374206 0.647781,-6.409187 -0.677207,-2.338449 -4.139975,-0.704101 -5.985688,-1.191745 -1.372087,0.136728 -2.915878,-0.315683 -4.178223,0.313105 z"
         style="fill:#f2f2f2;fill-opacity:1;stroke:none;stroke-width:1;stroke-miterlimit:4;stroke-dasharray:none;stroke-opacity:1" /><path
         inkscape:connector-curvature="0"
         id="path4819"
         d="m 76.926616,41.356291 c -1.472348,1.352712 -0.546117,3.835149 -0.821712,5.625394 -0.450916,3.104164 2.905865,4.730798 5.554234,4.34601 1.778186,-0.239306 4.005354,0.530906 5.495058,-0.631452 0.358409,-1.953441 -2.291655,-2.749572 -3.25788,-4.116363 -2.050168,-1.740152 -3.976628,-3.660227 -6.174205,-5.210106 -0.256645,0.04149 -0.54065,-0.06487 -0.795495,-0.01348 z"
         style="fill:#f2f2f2;fill-opacity:1;stroke:none;stroke-width:1;stroke-miterlimit:4;stroke-dasharray:none;stroke-opacity:1" /></g><g
       id="note"
       transform="matrix(1.7550462,0,0,1.5369218,35.919261,36.829791)"
       style="fill:#666666"><path
         id="path4194"
         d="m 31.414,7.585 -6,-6 C 25.039,1.21 24.529,1 24,1 L 3,1 C 1.346,1 0,2.345 0,4 l 0,24 c 0,1.654 1.346,3 3,3 l 26,0 c 1.654,0 3,-1.346 3,-3 L 32,9 C 32,8.469 31.789,7.96 31.414,7.585 Z M 30,28 c 0,0.553 -0.447,1 -1,1 L 3,29 C 2.447,29 2,28.553 2,28 L 2,4 C 2,3.447 2.447,3 3,3 l 20,0 0,4 -0.002,0 c 0,1.657 1.344,3 3,3 l 1,0 3.002,0 0,18 z m -3.002,-19 -1,0 c -1.102,0 -2,-0.897 -2,-2 L 24,7 24,3 30,9 26.998,9 Z"
         inkscape:connector-curvature="0"
         style="clip-rule:evenodd;fill:#666666;fill-rule:evenodd" /><path
         id="path4196"
         d="m 15.5,8 5,0 C 20.775,8 21,7.776 21,7.5 21,7.224 20.775,7 20.5,7 l -5,0 C 15.224,7 15,7.223 15,7.5 15,7.777 15.224,8 15.5,8 Z"
         inkscape:connector-curvature="0"
         style="clip-rule:evenodd;fill:#666666;fill-rule:evenodd" /><path
         id="path4198"
         d="m 15.5,11 5,0 C 20.775,11 21,10.776 21,10.5 21,10.224 20.775,10 20.5,10 l -5,0 c -0.276,0 -0.5,0.224 -0.5,0.5 0,0.276 0.224,0.5 0.5,0.5 z"
         inkscape:connector-curvature="0"
         style="clip-rule:evenodd;fill:#666666;fill-rule:evenodd" /><path
         id="path4200"
         d="m 15,13.5 c 0,0.276 0.224,0.5 0.5,0.5 l 12,0 C 27.775,14 28,13.776 28,13.5 28,13.224 27.775,13 27.5,13 l -12,0 C 15.224,13 15,13.223 15,13.5 Z"
         inkscape:connector-curvature="0"
         style="clip-rule:evenodd;fill:#666666;fill-rule:evenodd" /><path
         id="path4202"
         d="m 27.5,19 -23,0 C 4.224,19 4,19.223 4,19.5 4,19.775 4.224,20 4.5,20 l 23,0 C 27.775,20 28,19.775 28,19.5 28,19.223 27.775,19 27.5,19 Z"
         inkscape:connector-curvature="0"
         style="clip-rule:evenodd;fill:#666666;fill-rule:evenodd" /><path
         id="path4204"
         d="m 27.5,22 -23,0 C 4.224,22 4,22.223 4,22.5 4,22.775 4.224,23 4.5,23 l 23,0 C 27.775,23 28,22.775 28,22.5 28,22.223 27.775,22 27.5,22 Z"
         inkscape:connector-curvature="0"
         style="clip-rule:evenodd;fill:#666666;fill-rule:evenodd" /><path
         id="path4206"
         d="m 27.5,25 -23,0 C 4.224,25 4,25.223 4,25.5 4,25.775 4.224,26 4.5,26 l 23,0 C 27.775,26 28,25.775 28,25.5 28,25.223 27.775,25 27.5,25 Z"
         inkscape:connector-curvature="0"
         style="clip-rule:evenodd;fill:#666666;fill-rule:evenodd" /><path
         id="path4208"
         d="m 27.5,16 -23,0 C 4.224,16 4,16.223 4,16.5 4,16.777 4.224,17 4.5,17 l 23,0 C 27.775,17 28,16.776 28,16.5 28,16.224 27.775,16 27.5,16 Z"
         inkscape:connector-curvature="0"
         style="clip-rule:evenodd;fill:#666666;fill-rule:evenodd" /><path
         id="path4210"
         d="m 5,14 7,0 c 0.553,0 1,-0.447 1,-1 L 13,7 C 13,6.447 12.553,6 12,6 L 5,6 C 4.447,6 4,6.447 4,7 l 0,6 c 0,0.552 0.447,1 1,1 z m 1,-6 5,0 0,4 -5,0 0,-4 z"
         inkscape:connector-curvature="0"
         style="clip-rule:evenodd;fill:#666666;fill-rule:evenodd" /></g><path
       sodipodi:type="star"
       style="fill:#808080;fill-opacity:1;stroke:none;stroke-width:1;stroke-miterlimit:4;stroke-dasharray:none;stroke-opacity:1"
       id="path4196-2"
       sodipodi:sides="3"
       sodipodi:cx="21.47687"
       sodipodi:cy="-53.402851"
       sodipodi:r1="21.311872"
       sodipodi:r2="10.655936"
       sodipodi:arg1="0.52807445"
       sodipodi:arg2="1.575272"
       inkscape:flatsided="false"
       inkscape:rounded="0"
       inkscape:randomized="0"
       d="m 39.885615,-42.664416 -18.456438,-0.08261 -18.4564379,-0.08261 9.2997579,-15.942442 9.299757,-15.942441 9.156681,16.025047 z"
       inkscape:transform-center-x="1.5685043"
       inkscape:transform-center-y="-0.00057287639"
       transform="matrix(-0.00127952,0.41231614,0.29445375,0.00179168,42.214888,55.009248)" /><path
       sodipodi:type="star"
       style="fill:#808080;fill-opacity:1;stroke:none;stroke-width:1;stroke-miterlimit:4;stroke-dasharray:none;stroke-opacity:1"
       id="path4196-2-4"
       sodipodi:sides="3"
       sodipodi:cx="21.47687"
       sodipodi:cy="-53.402851"
       sodipodi:r1="21.311872"
       sodipodi:r2="10.655936"
       sodipodi:arg1="0.52807445"
       sodipodi:arg2="1.575272"
       inkscape:flatsided="false"
       inkscape:rounded="0"
       inkscape:randomized="0"
       d="m 39.885615,-42.664416 -18.456438,-0.08261 -18.4564379,-0.08261 9.2997579,-15.942442 9.299757,-15.942441 9.156681,16.025047 z"
       inkscape:transform-center-x="-1.5685043"
       inkscape:transform-center-y="0.00057281672"
       transform="matrix(0.00127952,-0.41231614,-0.29445375,-0.00179168,85.913915,72.759007)" /></g><g
     transform="matrix(0.38,0,0,0.38,-1.1670898e-6,-271.89764)"
     id="layer1"
     inkscape:label="Layer 1"><g
       transform="translate(-145.42677,539.24166)"
       id="g4142"><circle
         style="fill:#333333;fill-opacity:1;stroke:none;stroke-width:1;stroke-miterlimit:4;stroke-dasharray:none;stroke-opacity:1"
         id="path4136"
         cx="195.42677"
         cy="463.12054"
         r="50" /><text
         xml:space="preserve"
         style="font-style:normal;font-weight:normal;font-size:40px;line-height:125%;font-family:sans-serif;letter-spacing:0px;word-spacing:0px;fill:#000000;fill-opacity:1;stroke:none;stroke-width:1px;stroke-linecap:butt;stroke-linejoin:miter;stroke-opacity:1"
         x="153.76552"
         y="474.32056"
         id="text4138"
         sodipodi:linespacing="125%"><tspan
           sodipodi:role="line"
           id="tspan4140"
           x="153.76552"
           y="474.32056"
           style="font-style:normal;font-variant:normal;font-weight:500;font-stretch:normal;font-family:poppins;-inkscape-font-specification:'poppins Medium';fill:#ff6600">mm</tspan></text>
</g></g></svg>