<?xml version="1.0" encoding="UTF-8" standalone="no"?>
<!-- Generator: Adobe Illustrator 15.1.0, SVG Export Plug-In . SVG Version: 6.00 Build 0)  -->

<svg
   xmlns:dc="http://purl.org/dc/elements/1.1/"
   xmlns:cc="http://creativecommons.org/ns#"
   xmlns:rdf="http://www.w3.org/1999/02/22-rdf-syntax-ns#"
   xmlns:svg="http://www.w3.org/2000/svg"
   xmlns="http://www.w3.org/2000/svg"
   xmlns:sodipodi="http://sodipodi.sourceforge.net/DTD/sodipodi-0.dtd"
   xmlns:inkscape="http://www.inkscape.org/namespaces/inkscape"
   version="1.1"
   id="news"
   x="0px"
   y="0px"
   width="128px"
   height="128px"
   viewBox="0 0 128 128"
   style="enable-background:new 0 0 128 128;"
   xml:space="preserve"
   inkscape:version="0.91 r13725"
   sodipodi:docname="banner.svg"><metadata
     id="metadata57"><rdf:RDF><cc:Work
         rdf:about=""><dc:format>image/svg+xml</dc:format><dc:type
           rdf:resource="http://purl.org/dc/dcmitype/StillImage" /></cc:Work></rdf:RDF></metadata><defs
     id="defs55" /><sodipodi:namedview
     pagecolor="#ffffff"
     bordercolor="#666666"
     borderopacity="1"
     objecttolerance="10"
     gridtolerance="10"
     guidetolerance="10"
     inkscape:pageopacity="0"
     inkscape:pageshadow="2"
     inkscape:window-width="1050"
     inkscape:window-height="773"
     id="namedview53"
     showgrid="false"
     showguides="false"
     inkscape:zoom="1.84375"
     inkscape:cx="68.08071"
     inkscape:cy="64"
     inkscape:window-x="128"
     inkscape:window-y="190"
     inkscape:window-maximized="0"
     inkscape:current-layer="g4209" /><g
     id="g3"><circle
       style="fill:#87deaa"
       cx="64"
       cy="64"
       r="64"
       id="circle5" /><g
       id="g4209"><g
         id="g4270"
         transform="translate(3.8146973e-6,0)"><rect
           ry="2.1582661"
           rx="2.4789679"
           y="38.27655"
           x="33.477039"
           height="39.053677"
           width="61.045914"
           id="rect4165-3"
           style="fill:#999999;fill-opacity:1;stroke:none;stroke-width:1;stroke-miterlimit:4;stroke-dasharray:none;stroke-opacity:1" /><path
           id="rect4165"
           d="m 52.571205,46.68467 c -0.958262,-0.07656 -1.802178,0.809331 -2.590603,2.160339 l -13.771613,28.484885 53.697936,0 -10.582971,-18.53292 C 78.131151,57.042985 76.706668,56.83398 75.291505,58.724744 L 67.054879,70.697133 55.043377,48.844939 c -0.911822,-1.45918 -1.726859,-2.100773 -2.472172,-2.160338 z m 16.875902,1.611056 a 2.8775849,2.6581034 0 0 0 -2.877791,2.65808 2.8775849,2.6581034 0 0 0 2.877791,2.658065 2.8775849,2.6581034 0 0 0 2.877792,-2.658065 2.8775849,2.6581034 0 0 0 -2.877792,-2.65808 z"
           style="fill:#e6e6e6;fill-opacity:1;stroke:none;stroke-width:1;stroke-miterlimit:4;stroke-dasharray:none;stroke-opacity:1"
           inkscape:connector-curvature="0" /><rect
           ry="2.0129488"
           rx="3.7735288"
           y="80.307259"
           x="33.766941"
           height="7.2467012"
           width="60.698498"
           id="rect4200"
           style="fill:#e6e6e6;fill-opacity:1;stroke:none;stroke-width:1;stroke-miterlimit:4;stroke-dasharray:none;stroke-opacity:1" /></g><g
         id="g4266"
         transform="translate(-1.4709405,0)"><path
           transform="matrix(0,0.33564899,-0.19256322,0,103.00243,80.559931)"
           inkscape:transform-center-y="-0.019372343"
           inkscape:transform-center-x="-1.6518066"
           d="m -21.694916,1.084746 -29.888221,-0.0999602 -29.888221,-0.0999602 15.030679,-25.83397968 15.030678,-25.833978 14.857543,25.933939 z"
           inkscape:randomized="0"
           inkscape:rounded="0"
           inkscape:flatsided="false"
           sodipodi:arg2="1.5741408"
           sodipodi:arg1="0.52694323"
           sodipodi:r2="17.256069"
           sodipodi:r1="34.512138"
           sodipodi:cy="-16.271187"
           sodipodi:cx="-51.525425"
           sodipodi:sides="3"
           id="path4234"
           style="fill:#999999;fill-opacity:1;stroke:none;stroke-width:1;stroke-miterlimit:4;stroke-dasharray:none;stroke-opacity:1"
           sodipodi:type="star" /><path
           transform="matrix(0,-0.33564899,0.19256322,0,27.939451,45.932275)"
           inkscape:transform-center-y="0.01937257"
           inkscape:transform-center-x="1.6518069"
           d="m -21.694916,1.084746 -29.888221,-0.0999602 -29.888221,-0.0999602 15.030679,-25.83397968 15.030678,-25.833978 14.857543,25.933939 z"
           inkscape:randomized="0"
           inkscape:rounded="0"
           inkscape:flatsided="false"
           sodipodi:arg2="1.5741408"
           sodipodi:arg1="0.52694323"
           sodipodi:r2="17.256069"
           sodipodi:r1="34.512138"
           sodipodi:cy="-16.271187"
           sodipodi:cx="-51.525425"
           sodipodi:sides="3"
           id="path4234-6"
           style="fill:#999999;fill-opacity:1;stroke:none;stroke-width:1;stroke-miterlimit:4;stroke-dasharray:none;stroke-opacity:1"
           sodipodi:type="star" /></g></g></g><g
     id="g4217"><path
       style="fill:#333333;fill-opacity:1;fill-rule:nonzero;stroke:none"
       d="M 38,108.9626 C 38,119.45566 29.455655,128 18.962575,128 8.4694351,128 0,119.45566 0,108.9626 0,98.46947 8.4694351,90.00002 18.962575,90.00002 29.455655,90.00002 38,98.46947 38,108.9626 Z"
       id="path4203"
       inkscape:connector-curvature="0" /><path
       style="fill:#ff6600;fill-opacity:1;fill-rule:nonzero;stroke:none"
       d="m 6.071014,104.84027 0,1.34912 c 0.5246492,-0.97434 1.4240543,-1.42405 2.623275,-1.42405 0.6745516,0 1.2741618,0.14978 1.723839,0.44971 0.524659,0.29992 0.899416,0.74948 1.199221,1.27416 0.299806,-0.52468 0.674562,-0.97438 1.199221,-1.27416 0.524658,-0.29993 1.124269,-0.44971 1.798831,-0.44971 0.899415,0 1.723879,0.29992 2.323489,0.89941 0.674562,0.5996 0.974367,1.49902 0.974367,2.62329 l 0,4.94668 -1.72388,0 0,-4.64687 c 0,-0.74952 -0.224853,-1.34912 -0.59961,-1.7239 -0.374756,-0.44971 -0.899415,-0.5996 -1.499026,-0.5996 -0.674561,0 -1.19922,0.14979 -1.573977,0.5996 -0.374756,0.37478 -0.524659,0.97438 -0.524659,1.7239 l 0,4.64687 -1.723879,0 0,-4.64687 c 0,-0.74952 -0.224854,-1.34912 -0.5995805,-1.7239 -0.3747563,-0.44971 -0.8994051,-0.5996 -1.4990156,-0.5996 -0.6745616,0 -1.1992104,0.14979 -1.5739667,0.5996 -0.3747567,0.37478 -0.5246492,0.97438 -0.5246492,1.7239 l 0,4.64687 -1.7988209,0 0,-8.39445 1.7988209,0 z"
       id="path4205"
       inkscape:connector-curvature="0" /><path
       style="fill:#ff6600;fill-opacity:1;fill-rule:nonzero;stroke:none"
       d="m 21.810624,104.84027 0,1.34912 c 0.59961,-0.97434 1.424074,-1.42405 2.698246,-1.42405 0.59961,0 1.19922,0.14978 1.72388,0.44971 0.524659,0.29992 0.899415,0.74948 1.124269,1.27416 0.299806,-0.52468 0.749513,-0.97438 1.274172,-1.27416 0.524659,-0.29993 1.049318,-0.44971 1.723879,-0.44971 0.974367,0 1.798831,0.29992 2.398441,0.89941 0.59961,0.5996 0.899416,1.49902 0.899416,2.62329 l 0,4.94668 -1.72388,0 0,-4.64687 c 0,-0.74952 -0.149901,-1.34912 -0.524659,-1.7239 -0.374756,-0.44971 -0.899415,-0.5996 -1.573977,-0.5996 -0.674561,0 -1.124269,0.14979 -1.499025,0.5996 -0.374757,0.37478 -0.599611,0.97438 -0.599611,1.7239 l 0,4.64687 -1.723879,0 0,-4.64687 c 0,-0.74952 -0.149902,-1.34912 -0.524659,-1.7239 -0.374757,-0.44971 -0.899416,-0.5996 -1.573977,-0.5996 -0.599611,0 -1.12427,0.14979 -1.499026,0.5996 -0.374756,0.37478 -0.59961,0.97438 -0.59961,1.7239 l 0,4.64687 -1.72378,0 0,-8.39445 1.72378,0 z"
       id="path4207"
       inkscape:connector-curvature="0" /></g></svg>